G04 MADE WITH FRITZING*
G04 WWW.FRITZING.ORG*
G04 SINGLE SIDED*
G04 HOLES NOT PLATED*
G04 CONTOUR ON CENTER OF CONTOUR VECTOR*
%ASAXBY*%
%FSLAX23Y23*%
%MOIN*%
%OFA0B0*%
%SFA1.0B1.0*%
%ADD10R,1.199070X0.644205X1.183070X0.628205*%
%ADD11C,0.008000*%
%ADD12R,0.001000X0.001000*%
%LNSILK1*%
G90*
G70*
G54D11*
X4Y640D02*
X1195Y640D01*
X1195Y4D01*
X4Y4D01*
X4Y640D01*
D02*
G54D12*
X554Y644D02*
X561Y644D01*
X567Y644D02*
X574Y644D01*
X612Y644D02*
X636Y644D01*
X554Y643D02*
X561Y643D01*
X568Y643D02*
X575Y643D01*
X611Y643D02*
X636Y643D01*
X554Y642D02*
X561Y642D01*
X568Y642D02*
X576Y642D01*
X612Y642D02*
X636Y642D01*
X554Y641D02*
X561Y641D01*
X569Y641D02*
X576Y641D01*
X612Y641D02*
X637Y641D01*
X554Y640D02*
X561Y640D01*
X570Y640D02*
X577Y640D01*
X614Y640D02*
X637Y640D01*
X554Y639D02*
X561Y639D01*
X570Y639D02*
X577Y639D01*
X630Y639D02*
X638Y639D01*
X554Y638D02*
X561Y638D01*
X571Y638D02*
X578Y638D01*
X631Y638D02*
X638Y638D01*
X554Y637D02*
X561Y637D01*
X571Y637D02*
X578Y637D01*
X632Y637D02*
X638Y637D01*
X554Y636D02*
X561Y636D01*
X572Y636D02*
X579Y636D01*
X632Y636D02*
X638Y636D01*
X452Y635D02*
X484Y635D01*
X507Y635D02*
X530Y635D01*
X552Y635D02*
X580Y635D01*
X632Y635D02*
X638Y635D01*
X654Y635D02*
X672Y635D01*
X452Y634D02*
X485Y634D01*
X505Y634D02*
X532Y634D01*
X552Y634D02*
X581Y634D01*
X632Y634D02*
X638Y634D01*
X653Y634D02*
X672Y634D01*
X452Y633D02*
X486Y633D01*
X504Y633D02*
X533Y633D01*
X552Y633D02*
X582Y633D01*
X632Y633D02*
X638Y633D01*
X652Y633D02*
X672Y633D01*
X452Y632D02*
X486Y632D01*
X503Y632D02*
X534Y632D01*
X552Y632D02*
X583Y632D01*
X632Y632D02*
X638Y632D01*
X652Y632D02*
X672Y632D01*
X452Y631D02*
X485Y631D01*
X503Y631D02*
X534Y631D01*
X552Y631D02*
X584Y631D01*
X632Y631D02*
X638Y631D01*
X652Y631D02*
X672Y631D01*
X452Y630D02*
X485Y630D01*
X502Y630D02*
X535Y630D01*
X552Y630D02*
X585Y630D01*
X632Y630D02*
X638Y630D01*
X653Y630D02*
X672Y630D01*
X452Y629D02*
X483Y629D01*
X502Y629D02*
X535Y629D01*
X552Y629D02*
X585Y629D01*
X632Y629D02*
X638Y629D01*
X654Y629D02*
X672Y629D01*
X452Y628D02*
X458Y628D01*
X502Y628D02*
X508Y628D01*
X529Y628D02*
X536Y628D01*
X552Y628D02*
X561Y628D01*
X577Y628D02*
X585Y628D01*
X632Y628D02*
X638Y628D01*
X666Y628D02*
X672Y628D01*
X452Y627D02*
X458Y627D01*
X502Y627D02*
X509Y627D01*
X530Y627D02*
X536Y627D01*
X552Y627D02*
X561Y627D01*
X577Y627D02*
X586Y627D01*
X632Y627D02*
X638Y627D01*
X666Y627D02*
X672Y627D01*
X452Y626D02*
X458Y626D01*
X502Y626D02*
X509Y626D01*
X530Y626D02*
X536Y626D01*
X552Y626D02*
X561Y626D01*
X578Y626D02*
X586Y626D01*
X632Y626D02*
X638Y626D01*
X666Y626D02*
X672Y626D01*
X452Y625D02*
X458Y625D01*
X503Y625D02*
X510Y625D01*
X530Y625D02*
X535Y625D01*
X552Y625D02*
X561Y625D01*
X578Y625D02*
X586Y625D01*
X632Y625D02*
X638Y625D01*
X666Y625D02*
X672Y625D01*
X452Y624D02*
X458Y624D01*
X503Y624D02*
X511Y624D01*
X531Y624D02*
X535Y624D01*
X552Y624D02*
X561Y624D01*
X579Y624D02*
X586Y624D01*
X632Y624D02*
X638Y624D01*
X666Y624D02*
X672Y624D01*
X452Y623D02*
X458Y623D01*
X504Y623D02*
X512Y623D01*
X532Y623D02*
X533Y623D01*
X552Y623D02*
X561Y623D01*
X579Y623D02*
X587Y623D01*
X607Y623D02*
X638Y623D01*
X666Y623D02*
X672Y623D01*
X452Y622D02*
X458Y622D01*
X505Y622D02*
X513Y622D01*
X552Y622D02*
X561Y622D01*
X580Y622D02*
X587Y622D01*
X605Y622D02*
X638Y622D01*
X666Y622D02*
X672Y622D01*
X452Y621D02*
X458Y621D01*
X505Y621D02*
X513Y621D01*
X552Y621D02*
X561Y621D01*
X580Y621D02*
X588Y621D01*
X605Y621D02*
X638Y621D01*
X666Y621D02*
X672Y621D01*
X452Y620D02*
X458Y620D01*
X506Y620D02*
X514Y620D01*
X552Y620D02*
X561Y620D01*
X580Y620D02*
X588Y620D01*
X605Y620D02*
X637Y620D01*
X666Y620D02*
X672Y620D01*
X452Y619D02*
X458Y619D01*
X507Y619D02*
X515Y619D01*
X552Y619D02*
X560Y619D01*
X580Y619D02*
X588Y619D01*
X605Y619D02*
X637Y619D01*
X666Y619D02*
X672Y619D01*
X452Y618D02*
X458Y618D01*
X508Y618D02*
X516Y618D01*
X552Y618D02*
X560Y618D01*
X580Y618D02*
X588Y618D01*
X605Y618D02*
X636Y618D01*
X666Y618D02*
X672Y618D01*
X452Y617D02*
X458Y617D01*
X508Y617D02*
X516Y617D01*
X552Y617D02*
X559Y617D01*
X580Y617D02*
X587Y617D01*
X606Y617D02*
X634Y617D01*
X666Y617D02*
X672Y617D01*
X452Y616D02*
X458Y616D01*
X509Y616D02*
X517Y616D01*
X552Y616D02*
X558Y616D01*
X580Y616D02*
X586Y616D01*
X666Y616D02*
X672Y616D01*
X452Y615D02*
X458Y615D01*
X510Y615D02*
X518Y615D01*
X552Y615D02*
X558Y615D01*
X580Y615D02*
X586Y615D01*
X666Y615D02*
X672Y615D01*
X452Y614D02*
X458Y614D01*
X511Y614D02*
X519Y614D01*
X552Y614D02*
X558Y614D01*
X580Y614D02*
X586Y614D01*
X666Y614D02*
X672Y614D01*
X452Y613D02*
X458Y613D01*
X512Y613D02*
X520Y613D01*
X552Y613D02*
X558Y613D01*
X580Y613D02*
X586Y613D01*
X666Y613D02*
X672Y613D01*
X452Y612D02*
X469Y612D01*
X512Y612D02*
X520Y612D01*
X552Y612D02*
X558Y612D01*
X580Y612D02*
X586Y612D01*
X605Y612D02*
X633Y612D01*
X666Y612D02*
X672Y612D01*
X452Y611D02*
X471Y611D01*
X513Y611D02*
X521Y611D01*
X552Y611D02*
X558Y611D01*
X579Y611D02*
X586Y611D01*
X603Y611D02*
X635Y611D01*
X666Y611D02*
X672Y611D01*
X452Y610D02*
X472Y610D01*
X514Y610D02*
X522Y610D01*
X552Y610D02*
X558Y610D01*
X578Y610D02*
X585Y610D01*
X602Y610D02*
X635Y610D01*
X666Y610D02*
X672Y610D01*
X452Y609D02*
X472Y609D01*
X515Y609D02*
X523Y609D01*
X552Y609D02*
X585Y609D01*
X602Y609D02*
X636Y609D01*
X666Y609D02*
X672Y609D01*
X452Y608D02*
X472Y608D01*
X515Y608D02*
X523Y608D01*
X552Y608D02*
X585Y608D01*
X602Y608D02*
X636Y608D01*
X666Y608D02*
X672Y608D01*
X452Y607D02*
X471Y607D01*
X516Y607D02*
X524Y607D01*
X552Y607D02*
X584Y607D01*
X602Y607D02*
X636Y607D01*
X666Y607D02*
X672Y607D01*
X452Y606D02*
X471Y606D01*
X517Y606D02*
X525Y606D01*
X552Y606D02*
X583Y606D01*
X602Y606D02*
X636Y606D01*
X666Y606D02*
X672Y606D01*
X682Y606D02*
X684Y606D01*
X452Y605D02*
X458Y605D01*
X518Y605D02*
X526Y605D01*
X552Y605D02*
X582Y605D01*
X602Y605D02*
X636Y605D01*
X666Y605D02*
X672Y605D01*
X681Y605D02*
X685Y605D01*
X452Y604D02*
X458Y604D01*
X519Y604D02*
X527Y604D01*
X552Y604D02*
X581Y604D01*
X603Y604D02*
X635Y604D01*
X666Y604D02*
X672Y604D01*
X680Y604D02*
X685Y604D01*
X452Y603D02*
X458Y603D01*
X519Y603D02*
X527Y603D01*
X552Y603D02*
X579Y603D01*
X604Y603D02*
X634Y603D01*
X666Y603D02*
X672Y603D01*
X680Y603D02*
X686Y603D01*
X452Y602D02*
X458Y602D01*
X520Y602D02*
X528Y602D01*
X552Y602D02*
X558Y602D01*
X666Y602D02*
X672Y602D01*
X680Y602D02*
X686Y602D01*
X452Y601D02*
X458Y601D01*
X521Y601D02*
X529Y601D01*
X552Y601D02*
X558Y601D01*
X666Y601D02*
X672Y601D01*
X680Y601D02*
X686Y601D01*
X452Y600D02*
X458Y600D01*
X522Y600D02*
X530Y600D01*
X552Y600D02*
X558Y600D01*
X666Y600D02*
X672Y600D01*
X680Y600D02*
X686Y600D01*
X452Y599D02*
X458Y599D01*
X522Y599D02*
X530Y599D01*
X552Y599D02*
X558Y599D01*
X666Y599D02*
X672Y599D01*
X680Y599D02*
X686Y599D01*
X452Y598D02*
X458Y598D01*
X523Y598D02*
X531Y598D01*
X552Y598D02*
X558Y598D01*
X666Y598D02*
X672Y598D01*
X680Y598D02*
X686Y598D01*
X452Y597D02*
X458Y597D01*
X524Y597D02*
X532Y597D01*
X552Y597D02*
X558Y597D01*
X666Y597D02*
X672Y597D01*
X680Y597D02*
X686Y597D01*
X452Y596D02*
X458Y596D01*
X525Y596D02*
X533Y596D01*
X552Y596D02*
X558Y596D01*
X666Y596D02*
X672Y596D01*
X680Y596D02*
X686Y596D01*
X452Y595D02*
X458Y595D01*
X525Y595D02*
X534Y595D01*
X552Y595D02*
X558Y595D01*
X666Y595D02*
X672Y595D01*
X680Y595D02*
X686Y595D01*
X452Y594D02*
X458Y594D01*
X504Y594D02*
X506Y594D01*
X526Y594D02*
X534Y594D01*
X552Y594D02*
X558Y594D01*
X666Y594D02*
X672Y594D01*
X680Y594D02*
X686Y594D01*
X452Y593D02*
X458Y593D01*
X503Y593D02*
X507Y593D01*
X527Y593D02*
X535Y593D01*
X552Y593D02*
X558Y593D01*
X666Y593D02*
X672Y593D01*
X680Y593D02*
X686Y593D01*
X452Y592D02*
X458Y592D01*
X502Y592D02*
X508Y592D01*
X528Y592D02*
X535Y592D01*
X552Y592D02*
X558Y592D01*
X666Y592D02*
X672Y592D01*
X680Y592D02*
X686Y592D01*
X452Y591D02*
X458Y591D01*
X502Y591D02*
X508Y591D01*
X529Y591D02*
X536Y591D01*
X552Y591D02*
X558Y591D01*
X666Y591D02*
X672Y591D01*
X680Y591D02*
X686Y591D01*
X452Y590D02*
X458Y590D01*
X502Y590D02*
X508Y590D01*
X529Y590D02*
X536Y590D01*
X552Y590D02*
X558Y590D01*
X666Y590D02*
X672Y590D01*
X680Y590D02*
X686Y590D01*
X452Y589D02*
X458Y589D01*
X502Y589D02*
X509Y589D01*
X529Y589D02*
X536Y589D01*
X552Y589D02*
X558Y589D01*
X666Y589D02*
X672Y589D01*
X680Y589D02*
X686Y589D01*
X452Y588D02*
X484Y588D01*
X503Y588D02*
X536Y588D01*
X552Y588D02*
X558Y588D01*
X654Y588D02*
X686Y588D01*
X452Y587D02*
X485Y587D01*
X503Y587D02*
X535Y587D01*
X552Y587D02*
X558Y587D01*
X653Y587D02*
X686Y587D01*
X452Y586D02*
X486Y586D01*
X504Y586D02*
X535Y586D01*
X552Y586D02*
X558Y586D01*
X652Y586D02*
X686Y586D01*
X452Y585D02*
X486Y585D01*
X504Y585D02*
X534Y585D01*
X552Y585D02*
X558Y585D01*
X652Y585D02*
X686Y585D01*
X452Y584D02*
X486Y584D01*
X505Y584D02*
X533Y584D01*
X552Y584D02*
X558Y584D01*
X652Y584D02*
X686Y584D01*
X452Y583D02*
X485Y583D01*
X507Y583D02*
X532Y583D01*
X553Y583D02*
X557Y583D01*
X653Y583D02*
X685Y583D01*
X274Y582D02*
X301Y582D01*
X325Y582D02*
X343Y582D01*
X452Y582D02*
X484Y582D01*
X509Y582D02*
X530Y582D01*
X554Y582D02*
X556Y582D01*
X654Y582D02*
X684Y582D01*
X274Y581D02*
X303Y581D01*
X324Y581D02*
X343Y581D01*
X274Y580D02*
X304Y580D01*
X324Y580D02*
X343Y580D01*
X274Y579D02*
X305Y579D01*
X324Y579D02*
X343Y579D01*
X274Y578D02*
X305Y578D01*
X324Y578D02*
X343Y578D01*
X274Y577D02*
X306Y577D01*
X325Y577D02*
X343Y577D01*
X274Y576D02*
X306Y576D01*
X327Y576D02*
X343Y576D01*
X274Y575D02*
X280Y575D01*
X300Y575D02*
X307Y575D01*
X337Y575D02*
X343Y575D01*
X274Y574D02*
X280Y574D01*
X301Y574D02*
X307Y574D01*
X337Y574D02*
X343Y574D01*
X274Y573D02*
X280Y573D01*
X301Y573D02*
X307Y573D01*
X337Y573D02*
X343Y573D01*
X274Y572D02*
X280Y572D01*
X301Y572D02*
X307Y572D01*
X337Y572D02*
X343Y572D01*
X274Y571D02*
X280Y571D01*
X301Y571D02*
X307Y571D01*
X337Y571D02*
X343Y571D01*
X274Y570D02*
X280Y570D01*
X301Y570D02*
X307Y570D01*
X337Y570D02*
X343Y570D01*
X274Y569D02*
X280Y569D01*
X301Y569D02*
X307Y569D01*
X337Y569D02*
X343Y569D01*
X274Y568D02*
X280Y568D01*
X301Y568D02*
X307Y568D01*
X337Y568D02*
X343Y568D01*
X274Y567D02*
X280Y567D01*
X301Y567D02*
X307Y567D01*
X337Y567D02*
X343Y567D01*
X274Y566D02*
X280Y566D01*
X300Y566D02*
X307Y566D01*
X337Y566D02*
X343Y566D01*
X274Y565D02*
X306Y565D01*
X337Y565D02*
X343Y565D01*
X274Y564D02*
X306Y564D01*
X337Y564D02*
X343Y564D01*
X274Y563D02*
X305Y563D01*
X337Y563D02*
X343Y563D01*
X274Y562D02*
X305Y562D01*
X337Y562D02*
X343Y562D01*
X274Y561D02*
X304Y561D01*
X337Y561D02*
X343Y561D01*
X274Y560D02*
X302Y560D01*
X337Y560D02*
X343Y560D01*
X274Y559D02*
X300Y559D01*
X337Y559D02*
X343Y559D01*
X274Y558D02*
X280Y558D01*
X285Y558D02*
X293Y558D01*
X337Y558D02*
X343Y558D01*
X274Y557D02*
X280Y557D01*
X286Y557D02*
X293Y557D01*
X337Y557D02*
X343Y557D01*
X274Y556D02*
X280Y556D01*
X287Y556D02*
X294Y556D01*
X337Y556D02*
X343Y556D01*
X274Y555D02*
X280Y555D01*
X287Y555D02*
X294Y555D01*
X337Y555D02*
X343Y555D01*
X274Y554D02*
X280Y554D01*
X288Y554D02*
X295Y554D01*
X337Y554D02*
X343Y554D01*
X274Y553D02*
X280Y553D01*
X288Y553D02*
X296Y553D01*
X337Y553D02*
X343Y553D01*
X353Y553D02*
X355Y553D01*
X274Y552D02*
X280Y552D01*
X289Y552D02*
X296Y552D01*
X337Y552D02*
X343Y552D01*
X352Y552D02*
X356Y552D01*
X274Y551D02*
X280Y551D01*
X290Y551D02*
X297Y551D01*
X337Y551D02*
X343Y551D01*
X351Y551D02*
X357Y551D01*
X274Y550D02*
X280Y550D01*
X290Y550D02*
X297Y550D01*
X337Y550D02*
X343Y550D01*
X351Y550D02*
X357Y550D01*
X274Y549D02*
X280Y549D01*
X291Y549D02*
X298Y549D01*
X337Y549D02*
X343Y549D01*
X351Y549D02*
X357Y549D01*
X274Y548D02*
X280Y548D01*
X291Y548D02*
X299Y548D01*
X337Y548D02*
X343Y548D01*
X351Y548D02*
X357Y548D01*
X274Y547D02*
X280Y547D01*
X292Y547D02*
X299Y547D01*
X337Y547D02*
X343Y547D01*
X351Y547D02*
X357Y547D01*
X274Y546D02*
X280Y546D01*
X292Y546D02*
X300Y546D01*
X337Y546D02*
X343Y546D01*
X351Y546D02*
X357Y546D01*
X274Y545D02*
X280Y545D01*
X293Y545D02*
X300Y545D01*
X337Y545D02*
X343Y545D01*
X351Y545D02*
X357Y545D01*
X274Y544D02*
X280Y544D01*
X294Y544D02*
X301Y544D01*
X337Y544D02*
X343Y544D01*
X351Y544D02*
X357Y544D01*
X274Y543D02*
X280Y543D01*
X294Y543D02*
X301Y543D01*
X337Y543D02*
X343Y543D01*
X351Y543D02*
X357Y543D01*
X274Y542D02*
X280Y542D01*
X295Y542D02*
X302Y542D01*
X337Y542D02*
X343Y542D01*
X351Y542D02*
X357Y542D01*
X274Y541D02*
X280Y541D01*
X295Y541D02*
X303Y541D01*
X337Y541D02*
X343Y541D01*
X351Y541D02*
X357Y541D01*
X274Y540D02*
X280Y540D01*
X296Y540D02*
X303Y540D01*
X337Y540D02*
X343Y540D01*
X351Y540D02*
X357Y540D01*
X274Y539D02*
X280Y539D01*
X297Y539D02*
X304Y539D01*
X337Y539D02*
X343Y539D01*
X351Y539D02*
X357Y539D01*
X274Y538D02*
X280Y538D01*
X297Y538D02*
X304Y538D01*
X337Y538D02*
X343Y538D01*
X351Y538D02*
X357Y538D01*
X274Y537D02*
X280Y537D01*
X298Y537D02*
X305Y537D01*
X337Y537D02*
X343Y537D01*
X351Y537D02*
X357Y537D01*
X274Y536D02*
X280Y536D01*
X298Y536D02*
X306Y536D01*
X337Y536D02*
X344Y536D01*
X351Y536D02*
X357Y536D01*
X274Y535D02*
X280Y535D01*
X299Y535D02*
X306Y535D01*
X325Y535D02*
X357Y535D01*
X274Y534D02*
X280Y534D01*
X299Y534D02*
X307Y534D01*
X324Y534D02*
X357Y534D01*
X274Y533D02*
X280Y533D01*
X300Y533D02*
X307Y533D01*
X324Y533D02*
X357Y533D01*
X274Y532D02*
X279Y532D01*
X301Y532D02*
X307Y532D01*
X324Y532D02*
X357Y532D01*
X274Y531D02*
X279Y531D01*
X301Y531D02*
X307Y531D01*
X324Y531D02*
X357Y531D01*
X274Y530D02*
X279Y530D01*
X302Y530D02*
X306Y530D01*
X324Y530D02*
X356Y530D01*
X276Y529D02*
X277Y529D01*
X303Y529D02*
X305Y529D01*
X326Y529D02*
X355Y529D01*
X430Y499D02*
X431Y499D01*
X458Y499D02*
X458Y499D01*
X478Y499D02*
X511Y499D01*
X530Y499D02*
X561Y499D01*
X580Y499D02*
X605Y499D01*
X630Y499D02*
X655Y499D01*
X680Y499D02*
X705Y499D01*
X428Y498D02*
X432Y498D01*
X456Y498D02*
X460Y498D01*
X477Y498D02*
X511Y498D01*
X528Y498D02*
X561Y498D01*
X578Y498D02*
X608Y498D01*
X628Y498D02*
X658Y498D01*
X678Y498D02*
X708Y498D01*
X428Y497D02*
X433Y497D01*
X455Y497D02*
X461Y497D01*
X477Y497D02*
X511Y497D01*
X528Y497D02*
X561Y497D01*
X578Y497D02*
X609Y497D01*
X628Y497D02*
X659Y497D01*
X678Y497D02*
X709Y497D01*
X427Y496D02*
X433Y496D01*
X455Y496D02*
X461Y496D01*
X477Y496D02*
X511Y496D01*
X527Y496D02*
X561Y496D01*
X577Y496D02*
X610Y496D01*
X627Y496D02*
X660Y496D01*
X677Y496D02*
X710Y496D01*
X427Y495D02*
X433Y495D01*
X455Y495D02*
X461Y495D01*
X477Y495D02*
X511Y495D01*
X527Y495D02*
X561Y495D01*
X577Y495D02*
X610Y495D01*
X627Y495D02*
X660Y495D01*
X677Y495D02*
X710Y495D01*
X427Y494D02*
X433Y494D01*
X455Y494D02*
X461Y494D01*
X477Y494D02*
X511Y494D01*
X527Y494D02*
X561Y494D01*
X578Y494D02*
X611Y494D01*
X628Y494D02*
X661Y494D01*
X678Y494D02*
X711Y494D01*
X427Y493D02*
X433Y493D01*
X455Y493D02*
X461Y493D01*
X477Y493D02*
X511Y493D01*
X527Y493D02*
X561Y493D01*
X579Y493D02*
X611Y493D01*
X629Y493D02*
X661Y493D01*
X679Y493D02*
X711Y493D01*
X427Y492D02*
X433Y492D01*
X455Y492D02*
X461Y492D01*
X477Y492D02*
X484Y492D01*
X491Y492D02*
X497Y492D01*
X505Y492D02*
X511Y492D01*
X527Y492D02*
X534Y492D01*
X555Y492D02*
X561Y492D01*
X605Y492D02*
X611Y492D01*
X655Y492D02*
X661Y492D01*
X705Y492D02*
X711Y492D01*
X427Y491D02*
X433Y491D01*
X455Y491D02*
X461Y491D01*
X477Y491D02*
X483Y491D01*
X491Y491D02*
X497Y491D01*
X505Y491D02*
X511Y491D01*
X528Y491D02*
X533Y491D01*
X555Y491D02*
X561Y491D01*
X605Y491D02*
X611Y491D01*
X655Y491D02*
X661Y491D01*
X705Y491D02*
X711Y491D01*
X427Y490D02*
X433Y490D01*
X455Y490D02*
X461Y490D01*
X477Y490D02*
X483Y490D01*
X491Y490D02*
X497Y490D01*
X505Y490D02*
X511Y490D01*
X529Y490D02*
X532Y490D01*
X555Y490D02*
X561Y490D01*
X605Y490D02*
X611Y490D01*
X655Y490D02*
X661Y490D01*
X705Y490D02*
X711Y490D01*
X427Y489D02*
X433Y489D01*
X455Y489D02*
X461Y489D01*
X478Y489D02*
X483Y489D01*
X491Y489D02*
X497Y489D01*
X505Y489D02*
X511Y489D01*
X555Y489D02*
X561Y489D01*
X605Y489D02*
X611Y489D01*
X655Y489D02*
X661Y489D01*
X705Y489D02*
X711Y489D01*
X427Y488D02*
X433Y488D01*
X455Y488D02*
X461Y488D01*
X478Y488D02*
X483Y488D01*
X491Y488D02*
X497Y488D01*
X505Y488D02*
X510Y488D01*
X555Y488D02*
X561Y488D01*
X605Y488D02*
X611Y488D01*
X655Y488D02*
X661Y488D01*
X705Y488D02*
X711Y488D01*
X427Y487D02*
X433Y487D01*
X455Y487D02*
X461Y487D01*
X479Y487D02*
X482Y487D01*
X491Y487D02*
X497Y487D01*
X506Y487D02*
X510Y487D01*
X555Y487D02*
X561Y487D01*
X605Y487D02*
X611Y487D01*
X655Y487D02*
X661Y487D01*
X705Y487D02*
X711Y487D01*
X427Y486D02*
X433Y486D01*
X455Y486D02*
X461Y486D01*
X491Y486D02*
X497Y486D01*
X555Y486D02*
X561Y486D01*
X605Y486D02*
X611Y486D01*
X655Y486D02*
X661Y486D01*
X705Y486D02*
X711Y486D01*
X427Y485D02*
X433Y485D01*
X455Y485D02*
X461Y485D01*
X491Y485D02*
X497Y485D01*
X555Y485D02*
X561Y485D01*
X605Y485D02*
X611Y485D01*
X655Y485D02*
X661Y485D01*
X705Y485D02*
X711Y485D01*
X427Y484D02*
X433Y484D01*
X455Y484D02*
X461Y484D01*
X491Y484D02*
X497Y484D01*
X555Y484D02*
X561Y484D01*
X605Y484D02*
X611Y484D01*
X655Y484D02*
X661Y484D01*
X705Y484D02*
X711Y484D01*
X427Y483D02*
X433Y483D01*
X455Y483D02*
X461Y483D01*
X491Y483D02*
X497Y483D01*
X555Y483D02*
X561Y483D01*
X605Y483D02*
X611Y483D01*
X655Y483D02*
X661Y483D01*
X705Y483D02*
X711Y483D01*
X427Y482D02*
X433Y482D01*
X455Y482D02*
X461Y482D01*
X491Y482D02*
X497Y482D01*
X555Y482D02*
X561Y482D01*
X605Y482D02*
X611Y482D01*
X655Y482D02*
X661Y482D01*
X705Y482D02*
X711Y482D01*
X427Y481D02*
X433Y481D01*
X455Y481D02*
X461Y481D01*
X491Y481D02*
X497Y481D01*
X555Y481D02*
X561Y481D01*
X605Y481D02*
X611Y481D01*
X655Y481D02*
X661Y481D01*
X705Y481D02*
X711Y481D01*
X427Y480D02*
X433Y480D01*
X455Y480D02*
X461Y480D01*
X491Y480D02*
X497Y480D01*
X555Y480D02*
X561Y480D01*
X605Y480D02*
X611Y480D01*
X655Y480D02*
X661Y480D01*
X705Y480D02*
X711Y480D01*
X427Y479D02*
X433Y479D01*
X455Y479D02*
X461Y479D01*
X491Y479D02*
X497Y479D01*
X554Y479D02*
X561Y479D01*
X605Y479D02*
X611Y479D01*
X655Y479D02*
X661Y479D01*
X705Y479D02*
X711Y479D01*
X427Y478D02*
X433Y478D01*
X455Y478D02*
X461Y478D01*
X491Y478D02*
X497Y478D01*
X553Y478D02*
X561Y478D01*
X605Y478D02*
X611Y478D01*
X655Y478D02*
X661Y478D01*
X705Y478D02*
X711Y478D01*
X427Y477D02*
X433Y477D01*
X455Y477D02*
X461Y477D01*
X491Y477D02*
X497Y477D01*
X552Y477D02*
X561Y477D01*
X604Y477D02*
X611Y477D01*
X654Y477D02*
X661Y477D01*
X704Y477D02*
X711Y477D01*
X427Y476D02*
X433Y476D01*
X455Y476D02*
X461Y476D01*
X491Y476D02*
X497Y476D01*
X551Y476D02*
X560Y476D01*
X603Y476D02*
X610Y476D01*
X653Y476D02*
X660Y476D01*
X703Y476D02*
X710Y476D01*
X427Y475D02*
X461Y475D01*
X491Y475D02*
X497Y475D01*
X550Y475D02*
X559Y475D01*
X586Y475D02*
X610Y475D01*
X636Y475D02*
X660Y475D01*
X686Y475D02*
X710Y475D01*
X427Y474D02*
X461Y474D01*
X491Y474D02*
X497Y474D01*
X548Y474D02*
X558Y474D01*
X585Y474D02*
X610Y474D01*
X635Y474D02*
X660Y474D01*
X685Y474D02*
X710Y474D01*
X427Y473D02*
X461Y473D01*
X491Y473D02*
X497Y473D01*
X547Y473D02*
X557Y473D01*
X584Y473D02*
X609Y473D01*
X634Y473D02*
X659Y473D01*
X684Y473D02*
X709Y473D01*
X427Y472D02*
X461Y472D01*
X491Y472D02*
X497Y472D01*
X546Y472D02*
X556Y472D01*
X584Y472D02*
X608Y472D01*
X634Y472D02*
X658Y472D01*
X684Y472D02*
X708Y472D01*
X427Y471D02*
X461Y471D01*
X491Y471D02*
X497Y471D01*
X545Y471D02*
X555Y471D01*
X584Y471D02*
X609Y471D01*
X634Y471D02*
X659Y471D01*
X684Y471D02*
X709Y471D01*
X427Y470D02*
X461Y470D01*
X491Y470D02*
X497Y470D01*
X544Y470D02*
X554Y470D01*
X585Y470D02*
X610Y470D01*
X635Y470D02*
X660Y470D01*
X685Y470D02*
X710Y470D01*
X427Y469D02*
X461Y469D01*
X491Y469D02*
X497Y469D01*
X543Y469D02*
X552Y469D01*
X586Y469D02*
X610Y469D01*
X636Y469D02*
X660Y469D01*
X686Y469D02*
X710Y469D01*
X427Y468D02*
X433Y468D01*
X455Y468D02*
X461Y468D01*
X491Y468D02*
X497Y468D01*
X542Y468D02*
X551Y468D01*
X603Y468D02*
X610Y468D01*
X653Y468D02*
X660Y468D01*
X703Y468D02*
X710Y468D01*
X427Y467D02*
X433Y467D01*
X455Y467D02*
X461Y467D01*
X491Y467D02*
X497Y467D01*
X541Y467D02*
X550Y467D01*
X604Y467D02*
X611Y467D01*
X654Y467D02*
X661Y467D01*
X704Y467D02*
X711Y467D01*
X427Y466D02*
X433Y466D01*
X455Y466D02*
X461Y466D01*
X491Y466D02*
X497Y466D01*
X541Y466D02*
X549Y466D01*
X605Y466D02*
X611Y466D01*
X655Y466D02*
X661Y466D01*
X705Y466D02*
X711Y466D01*
X427Y465D02*
X433Y465D01*
X455Y465D02*
X461Y465D01*
X491Y465D02*
X497Y465D01*
X541Y465D02*
X548Y465D01*
X605Y465D02*
X611Y465D01*
X655Y465D02*
X661Y465D01*
X705Y465D02*
X711Y465D01*
X427Y464D02*
X433Y464D01*
X455Y464D02*
X461Y464D01*
X491Y464D02*
X497Y464D01*
X541Y464D02*
X547Y464D01*
X605Y464D02*
X611Y464D01*
X655Y464D02*
X661Y464D01*
X705Y464D02*
X711Y464D01*
X427Y463D02*
X433Y463D01*
X455Y463D02*
X461Y463D01*
X491Y463D02*
X497Y463D01*
X541Y463D02*
X547Y463D01*
X605Y463D02*
X611Y463D01*
X655Y463D02*
X661Y463D01*
X705Y463D02*
X711Y463D01*
X427Y462D02*
X433Y462D01*
X455Y462D02*
X461Y462D01*
X491Y462D02*
X497Y462D01*
X541Y462D02*
X547Y462D01*
X605Y462D02*
X611Y462D01*
X655Y462D02*
X661Y462D01*
X705Y462D02*
X711Y462D01*
X427Y461D02*
X433Y461D01*
X455Y461D02*
X461Y461D01*
X491Y461D02*
X497Y461D01*
X541Y461D02*
X547Y461D01*
X605Y461D02*
X611Y461D01*
X655Y461D02*
X661Y461D01*
X705Y461D02*
X711Y461D01*
X427Y460D02*
X433Y460D01*
X455Y460D02*
X461Y460D01*
X491Y460D02*
X497Y460D01*
X541Y460D02*
X547Y460D01*
X605Y460D02*
X611Y460D01*
X655Y460D02*
X661Y460D01*
X705Y460D02*
X711Y460D01*
X427Y459D02*
X433Y459D01*
X455Y459D02*
X461Y459D01*
X491Y459D02*
X497Y459D01*
X541Y459D02*
X547Y459D01*
X605Y459D02*
X611Y459D01*
X655Y459D02*
X661Y459D01*
X705Y459D02*
X711Y459D01*
X427Y458D02*
X433Y458D01*
X455Y458D02*
X461Y458D01*
X491Y458D02*
X497Y458D01*
X541Y458D02*
X547Y458D01*
X605Y458D02*
X611Y458D01*
X655Y458D02*
X661Y458D01*
X705Y458D02*
X711Y458D01*
X427Y457D02*
X433Y457D01*
X455Y457D02*
X461Y457D01*
X491Y457D02*
X497Y457D01*
X541Y457D02*
X547Y457D01*
X605Y457D02*
X611Y457D01*
X655Y457D02*
X661Y457D01*
X705Y457D02*
X711Y457D01*
X427Y456D02*
X433Y456D01*
X455Y456D02*
X461Y456D01*
X491Y456D02*
X497Y456D01*
X541Y456D02*
X547Y456D01*
X605Y456D02*
X611Y456D01*
X655Y456D02*
X661Y456D01*
X705Y456D02*
X711Y456D01*
X427Y455D02*
X433Y455D01*
X455Y455D02*
X461Y455D01*
X491Y455D02*
X497Y455D01*
X541Y455D02*
X547Y455D01*
X605Y455D02*
X611Y455D01*
X655Y455D02*
X661Y455D01*
X705Y455D02*
X711Y455D01*
X427Y454D02*
X433Y454D01*
X455Y454D02*
X461Y454D01*
X491Y454D02*
X497Y454D01*
X541Y454D02*
X547Y454D01*
X605Y454D02*
X611Y454D01*
X655Y454D02*
X661Y454D01*
X705Y454D02*
X711Y454D01*
X427Y453D02*
X433Y453D01*
X455Y453D02*
X461Y453D01*
X491Y453D02*
X497Y453D01*
X541Y453D02*
X547Y453D01*
X605Y453D02*
X611Y453D01*
X655Y453D02*
X661Y453D01*
X705Y453D02*
X711Y453D01*
X427Y452D02*
X433Y452D01*
X455Y452D02*
X461Y452D01*
X491Y452D02*
X497Y452D01*
X541Y452D02*
X547Y452D01*
X581Y452D02*
X611Y452D01*
X631Y452D02*
X661Y452D01*
X681Y452D02*
X711Y452D01*
X427Y451D02*
X433Y451D01*
X455Y451D02*
X461Y451D01*
X491Y451D02*
X497Y451D01*
X541Y451D02*
X547Y451D01*
X578Y451D02*
X611Y451D01*
X628Y451D02*
X661Y451D01*
X678Y451D02*
X711Y451D01*
X427Y450D02*
X433Y450D01*
X455Y450D02*
X461Y450D01*
X491Y450D02*
X497Y450D01*
X541Y450D02*
X547Y450D01*
X578Y450D02*
X611Y450D01*
X628Y450D02*
X661Y450D01*
X678Y450D02*
X711Y450D01*
X427Y449D02*
X433Y449D01*
X455Y449D02*
X461Y449D01*
X491Y449D02*
X497Y449D01*
X541Y449D02*
X547Y449D01*
X577Y449D02*
X610Y449D01*
X627Y449D02*
X660Y449D01*
X677Y449D02*
X710Y449D01*
X427Y448D02*
X433Y448D01*
X455Y448D02*
X461Y448D01*
X491Y448D02*
X497Y448D01*
X541Y448D02*
X547Y448D01*
X577Y448D02*
X610Y448D01*
X627Y448D02*
X660Y448D01*
X677Y448D02*
X710Y448D01*
X428Y447D02*
X433Y447D01*
X455Y447D02*
X461Y447D01*
X492Y447D02*
X497Y447D01*
X542Y447D02*
X547Y447D01*
X578Y447D02*
X609Y447D01*
X628Y447D02*
X659Y447D01*
X678Y447D02*
X709Y447D01*
X428Y446D02*
X432Y446D01*
X456Y446D02*
X460Y446D01*
X492Y446D02*
X496Y446D01*
X542Y446D02*
X546Y446D01*
X578Y446D02*
X607Y446D01*
X628Y446D02*
X657Y446D01*
X678Y446D02*
X707Y446D01*
X581Y445D02*
X604Y445D01*
X631Y445D02*
X654Y445D01*
X681Y445D02*
X704Y445D01*
X783Y424D02*
X799Y424D01*
X819Y424D02*
X837Y424D01*
X780Y423D02*
X800Y423D01*
X818Y423D02*
X837Y423D01*
X779Y422D02*
X801Y422D01*
X818Y422D02*
X837Y422D01*
X778Y421D02*
X801Y421D01*
X817Y421D02*
X837Y421D01*
X777Y420D02*
X801Y420D01*
X818Y420D02*
X837Y420D01*
X776Y419D02*
X800Y419D01*
X818Y419D02*
X837Y419D01*
X776Y418D02*
X799Y418D01*
X819Y418D02*
X837Y418D01*
X775Y417D02*
X783Y417D01*
X831Y417D02*
X837Y417D01*
X775Y416D02*
X782Y416D01*
X831Y416D02*
X837Y416D01*
X774Y415D02*
X781Y415D01*
X831Y415D02*
X837Y415D01*
X774Y414D02*
X781Y414D01*
X831Y414D02*
X837Y414D01*
X773Y413D02*
X780Y413D01*
X831Y413D02*
X837Y413D01*
X773Y412D02*
X780Y412D01*
X831Y412D02*
X837Y412D01*
X772Y411D02*
X779Y411D01*
X831Y411D02*
X837Y411D01*
X772Y410D02*
X779Y410D01*
X831Y410D02*
X837Y410D01*
X771Y409D02*
X778Y409D01*
X831Y409D02*
X837Y409D01*
X771Y408D02*
X778Y408D01*
X831Y408D02*
X837Y408D01*
X770Y407D02*
X777Y407D01*
X831Y407D02*
X837Y407D01*
X770Y406D02*
X777Y406D01*
X831Y406D02*
X837Y406D01*
X769Y405D02*
X776Y405D01*
X831Y405D02*
X837Y405D01*
X769Y404D02*
X776Y404D01*
X831Y404D02*
X837Y404D01*
X769Y403D02*
X775Y403D01*
X831Y403D02*
X837Y403D01*
X768Y402D02*
X775Y402D01*
X831Y402D02*
X837Y402D01*
X768Y401D02*
X774Y401D01*
X831Y401D02*
X837Y401D01*
X768Y400D02*
X774Y400D01*
X831Y400D02*
X837Y400D01*
X768Y399D02*
X774Y399D01*
X831Y399D02*
X837Y399D01*
X767Y398D02*
X774Y398D01*
X831Y398D02*
X837Y398D01*
X767Y397D02*
X773Y397D01*
X831Y397D02*
X837Y397D01*
X768Y396D02*
X774Y396D01*
X831Y396D02*
X837Y396D01*
X768Y395D02*
X774Y395D01*
X831Y395D02*
X837Y395D01*
X768Y394D02*
X774Y394D01*
X831Y394D02*
X837Y394D01*
X846Y394D02*
X850Y394D01*
X768Y393D02*
X775Y393D01*
X831Y393D02*
X837Y393D01*
X845Y393D02*
X851Y393D01*
X768Y392D02*
X775Y392D01*
X831Y392D02*
X837Y392D01*
X845Y392D02*
X851Y392D01*
X769Y391D02*
X776Y391D01*
X831Y391D02*
X837Y391D01*
X845Y391D02*
X851Y391D01*
X769Y390D02*
X776Y390D01*
X831Y390D02*
X837Y390D01*
X845Y390D02*
X851Y390D01*
X770Y389D02*
X777Y389D01*
X831Y389D02*
X837Y389D01*
X845Y389D02*
X851Y389D01*
X1174Y389D02*
X1191Y389D01*
X770Y388D02*
X777Y388D01*
X831Y388D02*
X837Y388D01*
X845Y388D02*
X851Y388D01*
X1171Y388D02*
X1194Y388D01*
X771Y387D02*
X778Y387D01*
X831Y387D02*
X837Y387D01*
X845Y387D02*
X851Y387D01*
X1170Y387D02*
X1195Y387D01*
X771Y386D02*
X778Y386D01*
X831Y386D02*
X837Y386D01*
X845Y386D02*
X851Y386D01*
X1169Y386D02*
X1196Y386D01*
X772Y385D02*
X779Y385D01*
X831Y385D02*
X837Y385D01*
X845Y385D02*
X851Y385D01*
X1168Y385D02*
X1197Y385D01*
X772Y384D02*
X779Y384D01*
X831Y384D02*
X837Y384D01*
X845Y384D02*
X851Y384D01*
X1168Y384D02*
X1197Y384D01*
X773Y383D02*
X780Y383D01*
X831Y383D02*
X837Y383D01*
X845Y383D02*
X851Y383D01*
X1168Y383D02*
X1197Y383D01*
X773Y382D02*
X780Y382D01*
X831Y382D02*
X837Y382D01*
X845Y382D02*
X851Y382D01*
X1168Y382D02*
X1174Y382D01*
X1191Y382D02*
X1197Y382D01*
X774Y381D02*
X781Y381D01*
X831Y381D02*
X837Y381D01*
X845Y381D02*
X851Y381D01*
X1168Y381D02*
X1174Y381D01*
X1191Y381D02*
X1197Y381D01*
X774Y380D02*
X781Y380D01*
X831Y380D02*
X837Y380D01*
X845Y380D02*
X851Y380D01*
X1168Y380D02*
X1174Y380D01*
X1191Y380D02*
X1197Y380D01*
X775Y379D02*
X782Y379D01*
X831Y379D02*
X837Y379D01*
X845Y379D02*
X851Y379D01*
X1168Y379D02*
X1174Y379D01*
X1191Y379D02*
X1197Y379D01*
X775Y378D02*
X783Y378D01*
X831Y378D02*
X837Y378D01*
X845Y378D02*
X851Y378D01*
X1168Y378D02*
X1174Y378D01*
X1191Y378D02*
X1197Y378D01*
X776Y377D02*
X799Y377D01*
X820Y377D02*
X851Y377D01*
X1168Y377D02*
X1174Y377D01*
X1191Y377D02*
X1197Y377D01*
X776Y376D02*
X800Y376D01*
X818Y376D02*
X851Y376D01*
X1168Y376D02*
X1174Y376D01*
X1191Y376D02*
X1197Y376D01*
X777Y375D02*
X801Y375D01*
X818Y375D02*
X851Y375D01*
X1168Y375D02*
X1174Y375D01*
X1191Y375D02*
X1197Y375D01*
X778Y374D02*
X801Y374D01*
X817Y374D02*
X851Y374D01*
X1168Y374D02*
X1174Y374D01*
X1191Y374D02*
X1197Y374D01*
X275Y373D02*
X301Y373D01*
X326Y373D02*
X354Y373D01*
X779Y373D02*
X801Y373D01*
X818Y373D02*
X851Y373D01*
X1168Y373D02*
X1174Y373D01*
X1191Y373D02*
X1197Y373D01*
X275Y372D02*
X303Y372D01*
X325Y372D02*
X356Y372D01*
X780Y372D02*
X800Y372D01*
X818Y372D02*
X850Y372D01*
X1168Y372D02*
X1174Y372D01*
X1191Y372D02*
X1197Y372D01*
X275Y371D02*
X305Y371D01*
X325Y371D02*
X357Y371D01*
X782Y371D02*
X799Y371D01*
X819Y371D02*
X849Y371D01*
X1168Y371D02*
X1174Y371D01*
X1191Y371D02*
X1197Y371D01*
X275Y370D02*
X306Y370D01*
X325Y370D02*
X357Y370D01*
X1168Y370D02*
X1174Y370D01*
X1191Y370D02*
X1197Y370D01*
X275Y369D02*
X306Y369D01*
X325Y369D02*
X358Y369D01*
X1168Y369D02*
X1174Y369D01*
X1191Y369D02*
X1197Y369D01*
X275Y368D02*
X307Y368D01*
X325Y368D02*
X358Y368D01*
X1168Y368D02*
X1174Y368D01*
X1191Y368D02*
X1197Y368D01*
X275Y367D02*
X307Y367D01*
X327Y367D02*
X358Y367D01*
X1168Y367D02*
X1174Y367D01*
X1191Y367D02*
X1197Y367D01*
X275Y366D02*
X281Y366D01*
X301Y366D02*
X308Y366D01*
X352Y366D02*
X358Y366D01*
X1168Y366D02*
X1174Y366D01*
X1191Y366D02*
X1197Y366D01*
X275Y365D02*
X281Y365D01*
X302Y365D02*
X308Y365D01*
X352Y365D02*
X358Y365D01*
X1168Y365D02*
X1174Y365D01*
X1191Y365D02*
X1197Y365D01*
X275Y364D02*
X281Y364D01*
X302Y364D02*
X308Y364D01*
X352Y364D02*
X358Y364D01*
X1168Y364D02*
X1174Y364D01*
X1191Y364D02*
X1197Y364D01*
X275Y363D02*
X281Y363D01*
X302Y363D02*
X308Y363D01*
X352Y363D02*
X358Y363D01*
X1168Y363D02*
X1174Y363D01*
X1191Y363D02*
X1197Y363D01*
X275Y362D02*
X281Y362D01*
X302Y362D02*
X308Y362D01*
X352Y362D02*
X358Y362D01*
X1168Y362D02*
X1174Y362D01*
X1191Y362D02*
X1197Y362D01*
X275Y361D02*
X281Y361D01*
X302Y361D02*
X308Y361D01*
X352Y361D02*
X358Y361D01*
X1168Y361D02*
X1174Y361D01*
X275Y360D02*
X281Y360D01*
X302Y360D02*
X308Y360D01*
X352Y360D02*
X358Y360D01*
X1168Y360D02*
X1174Y360D01*
X275Y359D02*
X281Y359D01*
X302Y359D02*
X308Y359D01*
X352Y359D02*
X358Y359D01*
X1168Y359D02*
X1174Y359D01*
X275Y358D02*
X281Y358D01*
X302Y358D02*
X308Y358D01*
X352Y358D02*
X358Y358D01*
X1168Y358D02*
X1174Y358D01*
X275Y357D02*
X281Y357D01*
X301Y357D02*
X308Y357D01*
X352Y357D02*
X358Y357D01*
X1168Y357D02*
X1173Y357D01*
X275Y356D02*
X307Y356D01*
X352Y356D02*
X358Y356D01*
X1168Y356D02*
X1173Y356D01*
X275Y355D02*
X307Y355D01*
X352Y355D02*
X358Y355D01*
X1170Y355D02*
X1172Y355D01*
X275Y354D02*
X306Y354D01*
X352Y354D02*
X358Y354D01*
X275Y353D02*
X306Y353D01*
X352Y353D02*
X358Y353D01*
X275Y352D02*
X305Y352D01*
X352Y352D02*
X358Y352D01*
X275Y351D02*
X304Y351D01*
X352Y351D02*
X358Y351D01*
X275Y350D02*
X302Y350D01*
X330Y350D02*
X358Y350D01*
X275Y349D02*
X281Y349D01*
X286Y349D02*
X294Y349D01*
X328Y349D02*
X358Y349D01*
X275Y348D02*
X281Y348D01*
X287Y348D02*
X294Y348D01*
X327Y348D02*
X358Y348D01*
X275Y347D02*
X281Y347D01*
X288Y347D02*
X295Y347D01*
X326Y347D02*
X357Y347D01*
X275Y346D02*
X281Y346D01*
X288Y346D02*
X295Y346D01*
X325Y346D02*
X357Y346D01*
X275Y345D02*
X281Y345D01*
X289Y345D02*
X296Y345D01*
X325Y345D02*
X356Y345D01*
X275Y344D02*
X281Y344D01*
X289Y344D02*
X296Y344D01*
X325Y344D02*
X354Y344D01*
X275Y343D02*
X281Y343D01*
X290Y343D02*
X297Y343D01*
X325Y343D02*
X331Y343D01*
X275Y342D02*
X281Y342D01*
X290Y342D02*
X298Y342D01*
X325Y342D02*
X331Y342D01*
X275Y341D02*
X281Y341D01*
X291Y341D02*
X298Y341D01*
X325Y341D02*
X331Y341D01*
X275Y340D02*
X281Y340D01*
X292Y340D02*
X299Y340D01*
X325Y340D02*
X331Y340D01*
X275Y339D02*
X281Y339D01*
X292Y339D02*
X299Y339D01*
X325Y339D02*
X331Y339D01*
X1170Y339D02*
X1171Y339D01*
X275Y338D02*
X281Y338D01*
X293Y338D02*
X300Y338D01*
X325Y338D02*
X331Y338D01*
X1169Y338D02*
X1173Y338D01*
X275Y337D02*
X281Y337D01*
X293Y337D02*
X301Y337D01*
X325Y337D02*
X331Y337D01*
X1168Y337D02*
X1173Y337D01*
X275Y336D02*
X281Y336D01*
X294Y336D02*
X301Y336D01*
X325Y336D02*
X331Y336D01*
X1168Y336D02*
X1174Y336D01*
X275Y335D02*
X281Y335D01*
X295Y335D02*
X302Y335D01*
X325Y335D02*
X331Y335D01*
X1168Y335D02*
X1174Y335D01*
X275Y334D02*
X281Y334D01*
X295Y334D02*
X302Y334D01*
X325Y334D02*
X331Y334D01*
X1168Y334D02*
X1174Y334D01*
X275Y333D02*
X281Y333D01*
X296Y333D02*
X303Y333D01*
X325Y333D02*
X331Y333D01*
X1168Y333D02*
X1174Y333D01*
X275Y332D02*
X281Y332D01*
X296Y332D02*
X303Y332D01*
X325Y332D02*
X331Y332D01*
X1168Y332D02*
X1174Y332D01*
X275Y331D02*
X281Y331D01*
X297Y331D02*
X304Y331D01*
X325Y331D02*
X331Y331D01*
X1168Y331D02*
X1174Y331D01*
X275Y330D02*
X281Y330D01*
X297Y330D02*
X305Y330D01*
X325Y330D02*
X331Y330D01*
X1168Y330D02*
X1174Y330D01*
X275Y329D02*
X281Y329D01*
X298Y329D02*
X305Y329D01*
X325Y329D02*
X331Y329D01*
X1168Y329D02*
X1174Y329D01*
X275Y328D02*
X281Y328D01*
X299Y328D02*
X306Y328D01*
X325Y328D02*
X331Y328D01*
X1168Y328D02*
X1174Y328D01*
X275Y327D02*
X281Y327D01*
X299Y327D02*
X306Y327D01*
X325Y327D02*
X331Y327D01*
X1168Y327D02*
X1174Y327D01*
X275Y326D02*
X281Y326D01*
X300Y326D02*
X307Y326D01*
X325Y326D02*
X356Y326D01*
X1168Y326D02*
X1174Y326D01*
X275Y325D02*
X281Y325D01*
X300Y325D02*
X308Y325D01*
X325Y325D02*
X357Y325D01*
X1168Y325D02*
X1174Y325D01*
X275Y324D02*
X281Y324D01*
X301Y324D02*
X308Y324D01*
X325Y324D02*
X358Y324D01*
X1168Y324D02*
X1174Y324D01*
X275Y323D02*
X281Y323D01*
X302Y323D02*
X308Y323D01*
X325Y323D02*
X358Y323D01*
X1168Y323D02*
X1174Y323D01*
X275Y322D02*
X280Y322D01*
X302Y322D02*
X308Y322D01*
X325Y322D02*
X358Y322D01*
X1168Y322D02*
X1174Y322D01*
X275Y321D02*
X280Y321D01*
X303Y321D02*
X307Y321D01*
X325Y321D02*
X357Y321D01*
X1168Y321D02*
X1174Y321D01*
X277Y320D02*
X279Y320D01*
X304Y320D02*
X306Y320D01*
X325Y320D02*
X356Y320D01*
X1168Y320D02*
X1175Y320D01*
X1168Y319D02*
X1177Y319D01*
X1169Y318D02*
X1179Y318D01*
X1169Y317D02*
X1181Y317D01*
X1170Y316D02*
X1183Y316D01*
X1171Y315D02*
X1185Y315D01*
X1172Y314D02*
X1187Y314D01*
X1174Y313D02*
X1189Y313D01*
X1176Y312D02*
X1191Y312D01*
X1191Y305D02*
X1197Y305D01*
X439Y233D02*
X442Y233D01*
X484Y233D02*
X487Y233D01*
X512Y233D02*
X515Y233D01*
X438Y232D02*
X443Y232D01*
X483Y232D02*
X488Y232D01*
X511Y232D02*
X516Y232D01*
X438Y231D02*
X444Y231D01*
X483Y231D02*
X489Y231D01*
X510Y231D02*
X516Y231D01*
X438Y230D02*
X444Y230D01*
X483Y230D02*
X489Y230D01*
X510Y230D02*
X516Y230D01*
X438Y229D02*
X444Y229D01*
X483Y229D02*
X490Y229D01*
X510Y229D02*
X516Y229D01*
X438Y228D02*
X444Y228D01*
X483Y228D02*
X491Y228D01*
X510Y228D02*
X516Y228D01*
X438Y227D02*
X444Y227D01*
X484Y227D02*
X491Y227D01*
X510Y227D02*
X516Y227D01*
X438Y226D02*
X444Y226D01*
X485Y226D02*
X492Y226D01*
X510Y226D02*
X516Y226D01*
X438Y225D02*
X444Y225D01*
X485Y225D02*
X492Y225D01*
X510Y225D02*
X516Y225D01*
X438Y224D02*
X444Y224D01*
X486Y224D02*
X493Y224D01*
X510Y224D02*
X516Y224D01*
X438Y223D02*
X444Y223D01*
X486Y223D02*
X494Y223D01*
X510Y223D02*
X516Y223D01*
X438Y222D02*
X444Y222D01*
X487Y222D02*
X494Y222D01*
X510Y222D02*
X516Y222D01*
X438Y221D02*
X444Y221D01*
X488Y221D02*
X495Y221D01*
X510Y221D02*
X516Y221D01*
X438Y220D02*
X444Y220D01*
X488Y220D02*
X495Y220D01*
X510Y220D02*
X516Y220D01*
X438Y219D02*
X444Y219D01*
X489Y219D02*
X496Y219D01*
X510Y219D02*
X516Y219D01*
X438Y218D02*
X444Y218D01*
X489Y218D02*
X496Y218D01*
X510Y218D02*
X516Y218D01*
X438Y217D02*
X444Y217D01*
X490Y217D02*
X497Y217D01*
X510Y217D02*
X516Y217D01*
X437Y216D02*
X464Y216D01*
X490Y216D02*
X498Y216D01*
X510Y216D02*
X516Y216D01*
X435Y215D02*
X465Y215D01*
X491Y215D02*
X498Y215D01*
X510Y215D02*
X516Y215D01*
X435Y214D02*
X465Y214D01*
X492Y214D02*
X499Y214D01*
X510Y214D02*
X516Y214D01*
X434Y213D02*
X465Y213D01*
X492Y213D02*
X499Y213D01*
X510Y213D02*
X516Y213D01*
X435Y212D02*
X465Y212D01*
X493Y212D02*
X500Y212D01*
X510Y212D02*
X516Y212D01*
X435Y211D02*
X465Y211D01*
X493Y211D02*
X501Y211D01*
X510Y211D02*
X516Y211D01*
X436Y210D02*
X465Y210D01*
X494Y210D02*
X501Y210D01*
X510Y210D02*
X516Y210D01*
X438Y209D02*
X444Y209D01*
X458Y209D02*
X465Y209D01*
X495Y209D02*
X502Y209D01*
X510Y209D02*
X516Y209D01*
X438Y208D02*
X444Y208D01*
X459Y208D02*
X465Y208D01*
X495Y208D02*
X502Y208D01*
X510Y208D02*
X516Y208D01*
X438Y207D02*
X444Y207D01*
X459Y207D02*
X465Y207D01*
X496Y207D02*
X503Y207D01*
X510Y207D02*
X516Y207D01*
X438Y206D02*
X444Y206D01*
X459Y206D02*
X465Y206D01*
X496Y206D02*
X503Y206D01*
X510Y206D02*
X516Y206D01*
X438Y205D02*
X444Y205D01*
X459Y205D02*
X465Y205D01*
X497Y205D02*
X504Y205D01*
X510Y205D02*
X516Y205D01*
X438Y204D02*
X444Y204D01*
X459Y204D02*
X465Y204D01*
X491Y204D02*
X516Y204D01*
X438Y203D02*
X444Y203D01*
X459Y203D02*
X465Y203D01*
X488Y203D02*
X516Y203D01*
X438Y202D02*
X444Y202D01*
X459Y202D02*
X465Y202D01*
X487Y202D02*
X516Y202D01*
X438Y201D02*
X444Y201D01*
X459Y201D02*
X465Y201D01*
X486Y201D02*
X516Y201D01*
X438Y200D02*
X444Y200D01*
X459Y200D02*
X465Y200D01*
X485Y200D02*
X516Y200D01*
X438Y199D02*
X444Y199D01*
X459Y199D02*
X465Y199D01*
X484Y199D02*
X516Y199D01*
X438Y198D02*
X444Y198D01*
X459Y198D02*
X465Y198D01*
X484Y198D02*
X516Y198D01*
X438Y197D02*
X444Y197D01*
X459Y197D02*
X465Y197D01*
X483Y197D02*
X491Y197D01*
X510Y197D02*
X516Y197D01*
X438Y196D02*
X444Y196D01*
X459Y196D02*
X465Y196D01*
X483Y196D02*
X490Y196D01*
X510Y196D02*
X516Y196D01*
X438Y195D02*
X444Y195D01*
X459Y195D02*
X465Y195D01*
X483Y195D02*
X489Y195D01*
X510Y195D02*
X516Y195D01*
X438Y194D02*
X444Y194D01*
X459Y194D02*
X465Y194D01*
X483Y194D02*
X489Y194D01*
X510Y194D02*
X516Y194D01*
X438Y193D02*
X444Y193D01*
X459Y193D02*
X465Y193D01*
X483Y193D02*
X489Y193D01*
X510Y193D02*
X516Y193D01*
X438Y192D02*
X444Y192D01*
X459Y192D02*
X465Y192D01*
X483Y192D02*
X489Y192D01*
X510Y192D02*
X516Y192D01*
X438Y191D02*
X444Y191D01*
X459Y191D02*
X465Y191D01*
X483Y191D02*
X489Y191D01*
X510Y191D02*
X516Y191D01*
X438Y190D02*
X444Y190D01*
X459Y190D02*
X465Y190D01*
X483Y190D02*
X489Y190D01*
X510Y190D02*
X516Y190D01*
X438Y189D02*
X444Y189D01*
X459Y189D02*
X465Y189D01*
X483Y189D02*
X489Y189D01*
X510Y189D02*
X516Y189D01*
X438Y188D02*
X444Y188D01*
X459Y188D02*
X465Y188D01*
X483Y188D02*
X490Y188D01*
X510Y188D02*
X516Y188D01*
X439Y187D02*
X443Y187D01*
X459Y187D02*
X465Y187D01*
X483Y187D02*
X491Y187D01*
X510Y187D02*
X516Y187D01*
X440Y186D02*
X442Y186D01*
X459Y186D02*
X465Y186D01*
X484Y186D02*
X516Y186D01*
X459Y185D02*
X465Y185D01*
X484Y185D02*
X516Y185D01*
X459Y184D02*
X465Y184D01*
X485Y184D02*
X516Y184D01*
X459Y183D02*
X465Y183D01*
X486Y183D02*
X516Y183D01*
X459Y182D02*
X464Y182D01*
X487Y182D02*
X516Y182D01*
X459Y181D02*
X464Y181D01*
X488Y181D02*
X516Y181D01*
X461Y180D02*
X463Y180D01*
X490Y180D02*
X516Y180D01*
X1150Y51D02*
X1163Y51D01*
X1148Y50D02*
X1165Y50D01*
X1146Y49D02*
X1165Y49D01*
X1145Y48D02*
X1166Y48D01*
X1144Y47D02*
X1166Y47D01*
X1143Y46D02*
X1165Y46D01*
X1143Y45D02*
X1164Y45D01*
X1142Y44D02*
X1150Y44D01*
X1142Y43D02*
X1149Y43D01*
X1142Y42D02*
X1148Y42D01*
X1142Y41D02*
X1148Y41D01*
X1142Y40D02*
X1148Y40D01*
X337Y39D02*
X367Y39D01*
X390Y39D02*
X413Y39D01*
X450Y39D02*
X467Y39D01*
X1142Y39D02*
X1148Y39D01*
X336Y38D02*
X368Y38D01*
X388Y38D02*
X415Y38D01*
X448Y38D02*
X468Y38D01*
X1142Y38D02*
X1148Y38D01*
X335Y37D02*
X369Y37D01*
X387Y37D02*
X416Y37D01*
X446Y37D02*
X469Y37D01*
X1142Y37D02*
X1148Y37D01*
X335Y36D02*
X369Y36D01*
X387Y36D02*
X417Y36D01*
X445Y36D02*
X469Y36D01*
X1142Y36D02*
X1148Y36D01*
X335Y35D02*
X369Y35D01*
X386Y35D02*
X418Y35D01*
X445Y35D02*
X469Y35D01*
X1142Y35D02*
X1148Y35D01*
X335Y34D02*
X368Y34D01*
X386Y34D02*
X418Y34D01*
X444Y34D02*
X468Y34D01*
X1142Y34D02*
X1148Y34D01*
X335Y33D02*
X367Y33D01*
X385Y33D02*
X418Y33D01*
X443Y33D02*
X467Y33D01*
X1142Y33D02*
X1148Y33D01*
X335Y32D02*
X341Y32D01*
X349Y32D02*
X355Y32D01*
X385Y32D02*
X391Y32D01*
X412Y32D02*
X419Y32D01*
X443Y32D02*
X450Y32D01*
X456Y32D02*
X462Y32D01*
X1142Y32D02*
X1149Y32D01*
X335Y31D02*
X341Y31D01*
X349Y31D02*
X355Y31D01*
X385Y31D02*
X392Y31D01*
X413Y31D02*
X419Y31D01*
X442Y31D02*
X450Y31D01*
X456Y31D02*
X462Y31D01*
X1142Y31D02*
X1150Y31D01*
X335Y30D02*
X341Y30D01*
X349Y30D02*
X355Y30D01*
X385Y30D02*
X393Y30D01*
X413Y30D02*
X419Y30D01*
X442Y30D02*
X449Y30D01*
X456Y30D02*
X462Y30D01*
X1143Y30D02*
X1193Y30D01*
X335Y29D02*
X341Y29D01*
X349Y29D02*
X355Y29D01*
X386Y29D02*
X393Y29D01*
X413Y29D02*
X419Y29D01*
X442Y29D02*
X448Y29D01*
X456Y29D02*
X462Y29D01*
X1143Y29D02*
X1194Y29D01*
X335Y28D02*
X341Y28D01*
X349Y28D02*
X355Y28D01*
X386Y28D02*
X394Y28D01*
X414Y28D02*
X418Y28D01*
X441Y28D02*
X448Y28D01*
X456Y28D02*
X462Y28D01*
X1144Y28D02*
X1195Y28D01*
X335Y27D02*
X341Y27D01*
X349Y27D02*
X355Y27D01*
X387Y27D02*
X395Y27D01*
X415Y27D02*
X416Y27D01*
X441Y27D02*
X447Y27D01*
X456Y27D02*
X462Y27D01*
X1145Y27D02*
X1195Y27D01*
X335Y26D02*
X341Y26D01*
X349Y26D02*
X355Y26D01*
X388Y26D02*
X396Y26D01*
X440Y26D02*
X447Y26D01*
X456Y26D02*
X462Y26D01*
X1146Y26D02*
X1195Y26D01*
X335Y25D02*
X341Y25D01*
X349Y25D02*
X355Y25D01*
X388Y25D02*
X397Y25D01*
X440Y25D02*
X446Y25D01*
X456Y25D02*
X462Y25D01*
X1147Y25D02*
X1194Y25D01*
X335Y24D02*
X341Y24D01*
X349Y24D02*
X355Y24D01*
X389Y24D02*
X397Y24D01*
X439Y24D02*
X446Y24D01*
X456Y24D02*
X462Y24D01*
X1150Y24D02*
X1193Y24D01*
X335Y23D02*
X341Y23D01*
X349Y23D02*
X355Y23D01*
X390Y23D02*
X398Y23D01*
X439Y23D02*
X445Y23D01*
X456Y23D02*
X462Y23D01*
X335Y22D02*
X341Y22D01*
X349Y22D02*
X355Y22D01*
X391Y22D02*
X399Y22D01*
X438Y22D02*
X445Y22D01*
X456Y22D02*
X462Y22D01*
X335Y21D02*
X341Y21D01*
X349Y21D02*
X355Y21D01*
X392Y21D02*
X400Y21D01*
X438Y21D02*
X444Y21D01*
X456Y21D02*
X462Y21D01*
X335Y20D02*
X341Y20D01*
X349Y20D02*
X355Y20D01*
X392Y20D02*
X400Y20D01*
X437Y20D02*
X444Y20D01*
X456Y20D02*
X462Y20D01*
X335Y19D02*
X341Y19D01*
X349Y19D02*
X355Y19D01*
X393Y19D02*
X401Y19D01*
X437Y19D02*
X443Y19D01*
X456Y19D02*
X462Y19D01*
X335Y18D02*
X341Y18D01*
X349Y18D02*
X355Y18D01*
X394Y18D02*
X402Y18D01*
X436Y18D02*
X443Y18D01*
X456Y18D02*
X462Y18D01*
X336Y17D02*
X341Y17D01*
X349Y17D02*
X355Y17D01*
X395Y17D02*
X403Y17D01*
X436Y17D02*
X442Y17D01*
X456Y17D02*
X462Y17D01*
X336Y16D02*
X340Y16D01*
X349Y16D02*
X355Y16D01*
X395Y16D02*
X404Y16D01*
X436Y16D02*
X442Y16D01*
X456Y16D02*
X462Y16D01*
X349Y15D02*
X355Y15D01*
X396Y15D02*
X404Y15D01*
X435Y15D02*
X442Y15D01*
X456Y15D02*
X462Y15D01*
X349Y14D02*
X355Y14D01*
X397Y14D02*
X405Y14D01*
X435Y14D02*
X441Y14D01*
X456Y14D02*
X462Y14D01*
X349Y13D02*
X355Y13D01*
X398Y13D02*
X406Y13D01*
X435Y13D02*
X441Y13D01*
X456Y13D02*
X462Y13D01*
X349Y12D02*
X355Y12D01*
X399Y12D02*
X407Y12D01*
X435Y12D02*
X441Y12D01*
X456Y12D02*
X462Y12D01*
X349Y11D02*
X355Y11D01*
X399Y11D02*
X407Y11D01*
X435Y11D02*
X441Y11D01*
X456Y11D02*
X462Y11D01*
X349Y10D02*
X355Y10D01*
X400Y10D02*
X408Y10D01*
X435Y10D02*
X442Y10D01*
X456Y10D02*
X462Y10D01*
X349Y9D02*
X355Y9D01*
X401Y9D02*
X409Y9D01*
X436Y9D02*
X442Y9D01*
X456Y9D02*
X462Y9D01*
X349Y8D02*
X355Y8D01*
X402Y8D02*
X410Y8D01*
X436Y8D02*
X443Y8D01*
X456Y8D02*
X462Y8D01*
X349Y7D02*
X355Y7D01*
X402Y7D02*
X410Y7D01*
X436Y7D02*
X443Y7D01*
X456Y7D02*
X462Y7D01*
X349Y6D02*
X355Y6D01*
X403Y6D02*
X411Y6D01*
X437Y6D02*
X444Y6D01*
X456Y6D02*
X462Y6D01*
X349Y5D02*
X355Y5D01*
X404Y5D02*
X412Y5D01*
X437Y5D02*
X444Y5D01*
X456Y5D02*
X462Y5D01*
X349Y4D02*
X355Y4D01*
X405Y4D02*
X413Y4D01*
X438Y4D02*
X445Y4D01*
X456Y4D02*
X462Y4D01*
X1143Y4D02*
X1146Y4D01*
X1191Y4D02*
X1194Y4D01*
X349Y3D02*
X355Y3D01*
X406Y3D02*
X414Y3D01*
X438Y3D02*
X445Y3D01*
X456Y3D02*
X462Y3D01*
X1143Y3D02*
X1147Y3D01*
X1190Y3D02*
X1195Y3D01*
X349Y2D02*
X355Y2D01*
X406Y2D02*
X414Y2D01*
X439Y2D02*
X446Y2D01*
X456Y2D02*
X462Y2D01*
X1142Y2D02*
X1148Y2D01*
X1189Y2D02*
X1195Y2D01*
X349Y1D02*
X355Y1D01*
X407Y1D02*
X415Y1D01*
X439Y1D02*
X446Y1D01*
X456Y1D02*
X462Y1D01*
X1142Y1D02*
X1148Y1D01*
X1189Y1D02*
X1195Y1D01*
X349Y0D02*
X355Y0D01*
X408Y0D02*
X416Y0D01*
X440Y0D02*
X447Y0D01*
X456Y0D02*
X462Y0D01*
X1142Y0D02*
X1148Y0D01*
X1189Y0D02*
X1195Y0D01*
X349Y-1D02*
X355Y-1D01*
X409Y-1D02*
X417Y-1D01*
X440Y-1D02*
X447Y-1D01*
X456Y-1D02*
X462Y-1D01*
X1142Y-1D02*
X1148Y-1D01*
X1189Y-1D02*
X1195Y-1D01*
D02*
G04 End of Silk1*
M02*