G04 MADE WITH FRITZING*
G04 WWW.FRITZING.ORG*
G04 SINGLE SIDED*
G04 HOLES NOT PLATED*
G04 CONTOUR ON CENTER OF CONTOUR VECTOR*
%ASAXBY*%
%FSLAX23Y23*%
%MOIN*%
%OFA0B0*%
%SFA1.0B1.0*%
%ADD10C,0.069444*%
%ADD11C,0.075000*%
%ADD12C,0.083307*%
%ADD13R,0.022835X0.047244*%
%ADD14R,0.078740X0.078740*%
%ADD15R,0.074803X0.062992*%
%ADD16R,0.086615X0.078740*%
%ADD17R,0.078740X0.086615*%
%ADD18R,0.062992X0.074803*%
%ADD19C,0.048000*%
%LNCOPPER0*%
G90*
G70*
G54D10*
X513Y159D03*
X613Y159D03*
X713Y159D03*
X513Y159D03*
X613Y159D03*
X713Y159D03*
G54D11*
X398Y508D03*
X302Y508D03*
X398Y408D03*
X302Y408D03*
X398Y308D03*
X302Y308D03*
X398Y208D03*
X302Y208D03*
G54D12*
X1096Y182D03*
X1096Y182D03*
X996Y182D03*
X1096Y182D03*
X1096Y182D03*
X996Y182D03*
G54D13*
X781Y532D03*
X840Y532D03*
X899Y532D03*
G54D14*
X840Y410D03*
G54D15*
X165Y396D03*
X165Y519D03*
X166Y309D03*
X166Y187D03*
X568Y532D03*
X568Y410D03*
G54D16*
X832Y300D03*
X832Y182D03*
G54D17*
X1106Y334D03*
X988Y334D03*
G54D18*
X565Y304D03*
X687Y304D03*
G54D19*
X198Y309D02*
X262Y308D01*
D02*
X197Y399D02*
X262Y405D01*
D02*
X262Y511D02*
X197Y516D01*
D02*
X539Y305D02*
X438Y307D01*
D02*
X438Y408D02*
X536Y409D01*
D02*
X478Y173D02*
X434Y192D01*
D02*
X601Y194D02*
X575Y272D01*
D02*
X706Y195D02*
X692Y272D01*
D02*
X736Y59D02*
X531Y62D01*
D02*
X531Y62D02*
X520Y122D01*
D02*
X806Y148D02*
X736Y59D01*
D02*
X952Y182D02*
X870Y182D01*
D02*
X498Y595D02*
X351Y594D01*
D02*
X351Y594D02*
X321Y543D01*
D02*
X539Y558D02*
X498Y595D01*
D02*
X70Y218D02*
X134Y197D01*
D02*
X70Y471D02*
X70Y218D01*
D02*
X133Y503D02*
X70Y471D01*
D02*
X712Y304D02*
X794Y301D01*
D02*
X994Y226D02*
X990Y297D01*
D02*
X675Y532D02*
X775Y532D01*
D02*
X600Y532D02*
X675Y532D01*
D02*
X675Y532D02*
X685Y336D01*
D02*
X775Y532D02*
X675Y532D01*
D02*
X839Y601D02*
X840Y550D01*
D02*
X1101Y602D02*
X839Y601D01*
D02*
X1105Y372D02*
X1101Y602D01*
D02*
X1099Y226D02*
X1103Y297D01*
D02*
X986Y372D02*
X981Y531D01*
D02*
X981Y531D02*
X905Y532D01*
G04 End of Copper0*
M02*